<svg viewBox="0 0 168 27" xmlns="http://www.w3.org/2000/svg"><path d="M165.954 9.234h1.883l-3.891 11.226h-1.436l-2.653-7.038-2.427 7.038h-1.438l-4.213-11.226h2.033l3.023 8.252 3.022-8.747 3.396 8.747 2.701-8.252m-16.899 3.891c-.075-2.181-1.04-2.577-2.899-2.577-.52 0-1.363.223-1.487.346-.148.149-1.016.818-1.214 2.231h5.6zm-5.798 1.486v.372c0 2.677 1.313 4.139 3.667 4.139 1.313 0 2.849-.57 3.519-1.165l.149 1.734c-.991.595-2.156 1.067-4.263 1.067-2.825 0-5.055-2.182-5.055-5.873 0-3.867 2.107-5.948 5.005-5.948 3.446 0 4.511 1.784 4.511 5.674h-7.533zm-6.542-5.377h1.908v11.226h-1.908v-11.226zm.941-1.957c-.669 0-1.238-.694-1.238-1.388 0-.669.545-1.363 1.238-1.363.67 0 1.265.644 1.265 1.338 0 .694-.595 1.413-1.265 1.413zm-4.905 1.957h1.883l-4.188 11.226h-1.462l-4.461-11.226h2.033l3.27 8.326 2.925-8.326m-10.95 3.891c-.075-2.181-1.041-2.577-2.9-2.577-.52 0-1.363.223-1.487.346-.148.149-1.012.818-1.21 2.231h5.597zm-5.796 1.486v.372c0 2.677 1.31 4.139 3.664 4.139 1.313 0 2.85-.57 3.519-1.165l.149 1.734c-.991.595-2.156 1.067-4.263 1.067-2.821 0-5.051-2.182-5.051-5.873 0-3.867 2.106-5.948 5.002-5.948 3.445 0 4.51 1.784 4.51 5.674h-7.53zm-2.608-3.593l-1.561.447c0-.174-.074-.917-.793-.917-1.09 0-1.982 1.809-2.379 2.775v7.137h-1.908v-8.153c0-.867-.025-1.611-.099-2.181l-.099-.892h1.759l.323 1.784c.396-.966 1.338-2.056 2.552-2.056 1.288 0 1.957.57 2.156 1.636l.049.296v.124" fill="#959997"/><path d="M98.854 7.079h-2.231v6.343s.893.099 1.586.099c2.206 0 4.164-.743 4.164-3.295 0-2.107-1.165-3.147-3.519-3.147zm.099 8.078c-.669 0-1.487-.025-2.33-.124v5.427h-1.957v-14.967h4.857c2.75 0 5.08 1.685 5.08 4.733 0 2.924-2.85 4.931-5.65 4.931z" fill="#959997"/><path d="M79.692 9.039c0-1.182 1.15-1.838 2.826-1.838 1.048 0 2.692.262 3.973 1.444l.263-2.364c-1.019-.56-2.3-1.118-4.269-1.118-3.581 0-5.32 1.839-5.32 4.072 0 4.598 7.422 4.434 7.422 7.454 0 1.151-.984 2.104-3.088 2.104-1.937 0-3.055-.822-4.138-1.512l-.295 2.365c1.15.788 2.956 1.214 4.63 1.214 3.778 0 5.418-2.166 5.418-4.367 0-4.728-7.422-4.465-7.422-7.454m-6.465 7.289v-10.77h-2.529v9.883c-.656 1.381-1.938 2.562-2.07 2.629-.195.098-1.183.59-2.463.59-2.265 0-2.462-2.034-2.462-4.464v-8.638h-2.529v10.41c0 3.809 2.133 4.892 4.761 4.892 2.233 0 3.349-.558 4.861-2.595l.394 2.169h2.299l-.133-1.183c-.096-.754-.129-1.738-.129-2.923m-22.822 2.332c-.789 0-1.512-.195-2.037-.426-.295-.097-.592-.263-.887-.427v-7.323c.69-1.051 2.201-2.497 2.463-2.66.229-.132 1.216-.394 1.971-.394 2.823 0 3.218 3.151 3.218 5.255 0 3.579-1.476 5.975-4.728 5.975zm2.1-13.497c-2.1 0-3.512.756-5.089 2.595l-.394-2.2h-2.332l.132 1.214c.066.757.13 1.775.13 2.923v17.305h2.529v-6.893c.953.491 2.069.722 3.285.722 4.204 0 7.126-3.35 7.126-8.439 0-5.256-2.366-7.227-5.387-7.227zm-15.366 12.677c-.361.361-1.51.82-2.562.82-1.97 0-4.499-1.082-4.499-5.812 0-2.561 1.346-4.368 1.675-4.696.296-.295 1.348-.821 2.528-.821 3.646 0 4.532 3.153 4.532 5.911 0 2.529-1.313 4.237-1.674 4.598zm-2.53-12.677c-4.728 0-7.257 3.482-7.257 7.85 0 4.727 2.759 7.816 6.897 7.816 4.5 0 7.291-3.22 7.291-7.816 0-4.861-2.759-7.85-6.931-7.85zm-15.17 2.429c.23-.129.691-.261 1.708-.261 1.708 0 2.397.294 2.397 1.575h2.366c0-.359 0-.787-.034-1.082-.23-1.971-2.134-2.661-4.86-2.661-2.989 0-6.666 2.3-6.666 7.718 0 5.189 2.758 7.948 6.601 7.948 1.675 0 3.448-.362 4.925-1.381l-.197-2.298c-.984.821-2.824 1.51-4.038 1.51-2.136 0-4.533-1.706-4.533-5.878 0-4.006 2.069-5.024 2.331-5.19m-16.384-2.101c0-1.477.853-3.021 3.678-3.021 1.412 0 3.088.427 4.631 1.313l.131-2.628c-1.413-.622-2.956-.951-4.762-.951-4.598 0-6.568 2.432-6.568 5.421 0 5.581 8.735 6.107 8.735 9.882 0 1.477-1.149 3.024-3.842 3.024-1.707 0-3.383-.56-4.697-1.381l-.361 2.627c1.544.755 3.548 1.052 5.124 1.052 4.237 0 6.666-2.465 6.666-5.486 0-5.285-8.735-6.009-8.735-9.852" fill="#E9711C"/></svg>